<svg xmlns="http://www.w3.org/2000/svg" viewBox="0 0 298.01 255.38"><defs><style>.cls-1{fill:#124095;}</style></defs><g id="Layer_2" data-name="Layer 2"><g id="Layer_1-2" data-name="Layer 1"><path class="cls-1" d="M195,229.6h4.36c13.41,0,26.83,0,40.24,0a14,14,0,0,1,8.78,2.47,12.81,12.81,0,0,1,4.88,13.85A12.64,12.64,0,0,1,242,255.28c-1.24.1-2.48.09-3.72.09H59.84c-1.12,0-2.24,0-3.35-.05a12.89,12.89,0,0,1-12.28-13,12.74,12.74,0,0,1,12.57-12.67c11.42-.19,22.85-.07,34.27-.08H103c3.1-9.36,6.16-18.59,9.42-28.4h-4.17q-41.55,0-83.09,0c-9.77,0-17.26-3.93-22.19-12.44A22.8,22.8,0,0,1,0,177c0-9.56,0-19.12,0-28.68q0-62,0-124.07c0-11.49,7.19-21,18-23.49A39.12,39.12,0,0,1,26.92,0Q120.82,0,214.7,0c19.13,0,38.25,0,57.38,0a34.09,34.09,0,0,1,9.19,1.06A23.39,23.39,0,0,1,298,23v.37q0,77.13,0,154.25c0,8.91-4.23,15.66-11.75,20.31-4.14,2.57-8.76,3.3-13.57,3.3q-41.35,0-82.71,0h-4.29Zm97-72.85c.07-1.37.16-2.34.16-3.31q0-64.64,0-129.27a21.26,21.26,0,0,0-.43-4.43c-1.45-6.91-7.86-14.06-19.38-14Q150,5.9,27.59,5.77c-1.49,0-3-.07-4.46,0C13,6.48,5.88,13.92,5.87,24.12q0,64.63,0,129.26c0,1.08.14,2.15.22,3.37Zm0,6.26H6c0,5.84-.4,11.44.16,17a18.57,18.57,0,0,0,3.57,8.4c3.95,5.48,9.78,7.07,16.37,7.06q122.91-.07,245.81,0c1.24,0,2.49,0,3.72-.09,8.51-.81,15.54-7.11,16.3-15.31C292.44,174.46,292,168.86,292,163Zm-143,86.64H238.8a17.61,17.61,0,0,0,3.7-.3,7,7,0,0,0,5.47-7.05,7.09,7.09,0,0,0-5.55-6.64,19,19,0,0,0-3.7-.25q-87.89,0-175.77,0c-1.62,0-3.23-.07-4.84,0-4.81.15-8,2.93-8.06,7-.07,4.26,3.15,7.14,8.13,7.29h90.87Zm30.51-48.23H118.47c-3,9.1-6,18-9,27.29h79.16C185.52,219.44,182.57,210.53,179.56,201.42Z"/><path class="cls-1" d="M148.78,182.21H132a22.59,22.59,0,0,1-2.6-.09,2.46,2.46,0,0,1-2.38-2.79,4.63,4.63,0,0,1,2.15-2.65c.75-.46,1.93-.26,2.92-.26H166a13.22,13.22,0,0,1,2.6.14,2.75,2.75,0,0,1,2.46,2.83,2.67,2.67,0,0,1-2.54,2.74,22.51,22.51,0,0,1-2.6.08Z"/></g></g></svg>