<svg xmlns="http://www.w3.org/2000/svg" xmlns:xlink="http://www.w3.org/1999/xlink" viewBox="0 0 1109.33 358.5"><defs><style>.cls-1,.cls-2,.cls-3,.cls-4,.cls-5,.cls-6,.cls-7,.cls-8,.cls-9{stroke:#fff;stroke-miterlimit:10;}.cls-1{fill:url(#linear-gradient);}.cls-2{fill:url(#linear-gradient-2);}.cls-3{fill:url(#linear-gradient-3);}.cls-4{fill:url(#linear-gradient-4);}.cls-5{fill:url(#linear-gradient-5);}.cls-6{fill:url(#linear-gradient-6);}.cls-7{fill:url(#linear-gradient-7);}.cls-8{fill:url(#linear-gradient-8);}.cls-9{fill:url(#linear-gradient-9);}</style><linearGradient id="linear-gradient" x1="1108.83" y1="179.25" x2="829.35" y2="179.25" gradientUnits="userSpaceOnUse"><stop offset="0" stop-color="#bd3f32"/><stop offset="1" stop-color="#cb356b"/></linearGradient><linearGradient id="linear-gradient-2" x1="652.14" y1="249.3" x2="469.15" y2="249.3" xlink:href="#linear-gradient"/><linearGradient id="linear-gradient-3" x1="653.37" y1="93.65" x2="467.97" y2="93.65" xlink:href="#linear-gradient"/><linearGradient id="linear-gradient-4" x1="691.21" y1="188.25" x2="658.06" y2="188.25" xlink:href="#linear-gradient"/><linearGradient id="linear-gradient-5" x1="462.86" y1="188.26" x2="429.97" y2="188.26" xlink:href="#linear-gradient"/><linearGradient id="linear-gradient-6" x1="525.1" y1="30.44" x2="494.65" y2="30.44" xlink:href="#linear-gradient"/><linearGradient id="linear-gradient-7" x1="626.61" y1="30.45" x2="595.96" y2="30.45" xlink:href="#linear-gradient"/><linearGradient id="linear-gradient-8" x1="291.84" y1="222.28" x2="0.5" y2="222.28" xlink:href="#linear-gradient"/><linearGradient id="linear-gradient-9" x1="217.97" y1="41.9" x2="145.2" y2="41.9" xlink:href="#linear-gradient"/></defs><g id="Layer_2" data-name="Layer 2"><g id="Layer_1-2" data-name="Layer 1"><path class="cls-1" d="M1106.53,319.73c-7-1-14.08-2.11-21.12-3.12q-62.69-9-125.38-17.89c-1.62-.23-2.11-.88-2.11-2.46q.06-53.77,0-107.55c0-1.79.61-2.3,2.35-2.3q73.15,0,146.32,0c1.4,0,2.23.21,2.23,1.93q0,65.35,0,130.7c0,.23,0,.45,0,.68Zm.67-281c-.59.12-1.17.27-1.76.35Q1032.92,49.5,960.39,59.84c-1.87.26-2.48.93-2.48,2.83q.08,53.49,0,107c0,2,.63,2.46,2.52,2.46q72.93-.06,145.85,0c2,0,2.56-.57,2.55-2.54q-.07-63.78,0-127.54c0-1.09,0-2.17,0-3.26ZM831.61,186.41c-1.62,0-2.25.48-2.25,2.18q.06,44.66,0,89.32c0,1.55.52,2.15,2.07,2.37q54.84,7.8,109.67,15.67c2.48.36,2.48.35,2.48-2.1q0-52.47,0-104.94c0-2-.65-2.52-2.58-2.51-18.16.06-36.32,0-54.49,0S849.92,186.45,831.61,186.41Zm109.5-14.3c1.9,0,2.52-.51,2.51-2.47q-.07-52.41,0-104.83c0-2.48,0-2.5-2.46-2.15q-54.66,7.83-109.33,15.62c-1.8.25-2.44.87-2.44,2.75q.07,44.32,0,88.65c0,1.87.56,2.44,2.44,2.43,18.24-.06,36.47,0,54.71,0S922.91,172.05,941.11,172.11Z"/><path class="cls-2" d="M543.35,286.16c0,1.36,0,2.56,0,3.75.08,10.77.29,21.55.21,32.33a18.39,18.39,0,0,1-13.79,17.85c-13.11,3.76-26.92-4.77-26.28-19.39.15-3.47-.25-6.95-.3-10.43-.1-7-.14-13.92-.2-20.88,0-1,0-2,0-3.32-1.46-.07-2.65-.17-3.84-.17-7.86,0-15.72,0-23.57,0-5,0-6.42-1.46-6.42-6.43q0-59.44,0-118.89c0-1,.12-2,.21-3.16H651.92c.08,1.4.21,2.59.21,3.78q0,58.76,0,117.53c0,5.69-1.51,7.17-7.19,7.18h-21.8c-.11,1.63-.28,2.93-.28,4.23q0,15.31,0,30.64c0,8.26-3.25,14.71-10.9,18.22s-15.33,2.87-22.23-2.32c-5.05-3.78-7.1-9.17-7.09-15.3,0-10,.25-20,.38-30,0-1.66,0-3.32,0-5.24Z"/><path class="cls-3" d="M560.64,148.25H474.07c-4.24,0-4.26,0-4.86-4-5.85-38.86,9.25-68.4,40.89-90.06,16.51-11.3,35.28-16.18,55.26-14.95,28.33,1.75,51.46,14,69.1,36.24,12.81,16.09,19.34,34.57,18.89,55.24-.11,5.13-1.19,10.24-1.76,15.36-.19,1.7-1.09,2.31-2.69,2.22-1-.05-2,0-3,0Zm40.2-43a9.17,9.17,0,1,0,.26-18.33,9.17,9.17,0,1,0-.26,18.33Zm-71.51-8.87a9.18,9.18,0,1,0-9.45,8.86A9.09,9.09,0,0,0,529.33,96.37Z"/><path class="cls-4" d="M691.2,188.47c0,10.89,0,21.78,0,32.67,0,9.7-6.59,16.75-15.81,17-9.51.28-16.64-6.32-17.27-16,0-.67-.06-1.35-.06-2q0-31.83,0-63.65c0-4.75,1.07-9.1,4.4-12.72a16.54,16.54,0,0,1,17.85-4.47,16.13,16.13,0,0,1,10.85,15.16c.08,11.33,0,22.67,0,34Z"/><path class="cls-5" d="M430,188.22c0-11.34-.1-22.67,0-34a16,16,0,0,1,14.26-15.78,16.62,16.62,0,0,1,18,11.95,14.59,14.59,0,0,1,.48,3.66c0,22.78.09,45.57,0,68.35A16,16,0,0,1,449.18,238c-8.7,1.16-16.24-3.45-18.55-11.51a21.34,21.34,0,0,1-.62-5.65c-.06-10.88,0-21.77,0-32.65Z"/><path class="cls-6" d="M525.1,36.1c-5.1,2.51-10.09,5-15.14,7.38a2.68,2.68,0,0,1-2.3-.64c-3.71-3.58-7.44-7.14-10.92-10.94A8.91,8.91,0,0,1,497,20.19c3-3.19,8.4-4,11.6-1C514.24,24.52,519.5,30.32,525.1,36.1Z"/><path class="cls-7" d="M596,36c5.62-5.75,10.84-11.45,16.45-16.72,3.23-3,8.19-2.48,11.34.53s4,8,1.15,11.31c-3.62,4.27-7.75,8.09-11.74,12a2.25,2.25,0,0,1-2.06.3C606.06,41.09,601.09,38.58,596,36Z"/><path class="cls-8" d="M212.58,357.49c-8.6.19-16-1.88-23.28-4.63-8.29-3.15-16.47-6.57-25.29-8.16a64.15,64.15,0,0,0-24.08.44c-7.93,1.56-15.38,4.55-22.85,7.52a70.11,70.11,0,0,1-18.46,5.07c-7.54.78-14.93-.05-21.78-3.82A75.72,75.72,0,0,1,62.9,343.64c-8-7.2-14.41-15.74-20.55-24.46-5.13-7.29-10.08-14.77-14.47-22.53a231.08,231.08,0,0,1-10.31-21.53A217.9,217.9,0,0,1,6.09,240.61a209.49,209.49,0,0,1-4.83-27.25c-.8-6.9-.6-13.85-.74-20.78a127.35,127.35,0,0,1,3.93-33.51A97.61,97.61,0,0,1,12,138.54a104.07,104.07,0,0,1,14-21.28A89.13,89.13,0,0,1,56.67,94.42,76.13,76.13,0,0,1,81,87.84a55.67,55.67,0,0,1,9-.65,93.2,93.2,0,0,1,12.89,1.7c8.49,1.71,16.52,4.94,24.62,8,6.38,2.38,12.75,4.85,19.52,6,3,.51,5.64-.57,8.28-1.46,8.64-2.91,17.22-6,25.82-9,7.14-2.51,14.41-4.65,21.94-5.38a110.56,110.56,0,0,1,16.78-.2A85.13,85.13,0,0,1,243,91.66a80.68,80.68,0,0,1,27,15.75,94.71,94.71,0,0,1,11.48,12.72c1.52,1.91,1.43,2.35-.63,3.68a88.87,88.87,0,0,0-15.16,12,71.1,71.1,0,0,0-20.44,39.74,83.44,83.44,0,0,0-1.21,15.12,82,82,0,0,0,6.45,31,75.16,75.16,0,0,0,11.28,18.27A82.33,82.33,0,0,0,284,258.54c1.94,1.11,3.94,2.1,5.92,3.15s2.22,1.52,1.51,3.59a213.91,213.91,0,0,1-14.36,32.81A229.43,229.43,0,0,1,259,325.82a129.79,129.79,0,0,1-14.84,17.27c-5.27,5-11,9.29-17.8,11.87C221.71,356.72,216.91,357.84,212.58,357.49Z"/><path class="cls-9" d="M218,7.91a72.57,72.57,0,0,1-7.06,31.51,88.1,88.1,0,0,1-13,20.15c-7,8.13-15.14,14.87-25,19.25a47.41,47.41,0,0,1-15.69,4.1c-3.12.22-6.26.23-9.39.38-1.29.06-2.15-.37-2.2-1.76-.13-3.19-.58-6.42-.23-9.56a99.37,99.37,0,0,1,2.56-14.57,70.11,70.11,0,0,1,12.63-24.86A99.21,99.21,0,0,1,168.58,23a69.58,69.58,0,0,1,14.57-11.25c7.73-4.43,15.72-8.26,24.49-10.18A50.58,50.58,0,0,1,215.5.51c2-.12,2.43.55,2.45,2.5C218,4.64,218,6.27,218,7.91Z"/></g></g></svg>