<svg xmlns="http://www.w3.org/2000/svg" xmlns:xlink="http://www.w3.org/1999/xlink" viewBox="0 0 2559 395.25"><defs><style>.cls-1{fill:url(#linear-gradient);}.cls-2{fill:#292929;}</style><linearGradient id="linear-gradient" x1="1599.32" y1="949.07" x2="959.68" y2="-158.82" gradientUnits="userSpaceOnUse"><stop offset="0" stop-color="#8f94fb"/><stop offset="0.72" stop-color="#4e54c8"/><stop offset="1" stop-color="#7075e3"/></linearGradient></defs><g id="Layer_2" data-name="Layer 2"><g id="Layer_1-2" data-name="Layer 1"><path class="cls-1" d="M0,395.25c1359,0,1156-196.88,1465-196.88,196,0,208-76.37,385-76.37,181.25,0,139,273,709,273"/><path class="cls-2" d="M1344.16,84.33V94.89h-.6q-7.53,0-12.37,3.61a15.22,15.22,0,0,0-6,10,15.7,15.7,0,0,1,11.48-4.47,14.65,14.65,0,0,1,12,5.5q4.47,5.51,4.47,14.43a20.41,20.41,0,0,1-2.61,10.16,18.72,18.72,0,0,1-7.3,7.23,21,21,0,0,1-10.38,2.61,21.67,21.67,0,0,1-11-2.81,19.29,19.29,0,0,1-7.58-8,26.47,26.47,0,0,1-2.78-12v-5.38a33.53,33.53,0,0,1,3.84-16.12,27.83,27.83,0,0,1,11-11.22,31.37,31.37,0,0,1,15.82-4.06Zm-12.11,30a7.74,7.74,0,0,0-4.47,1.24,7.88,7.88,0,0,0-2.67,3v4q0,11,7.61,11a6.17,6.17,0,0,0,5.12-2.75,11.19,11.19,0,0,0,2.06-6.89,11,11,0,0,0-2.1-7A6.68,6.68,0,0,0,1332.05,114.33Z"/><path class="cls-2" d="M1388.75,143.18h-13.47V100.31l-13.23,3.86V94l25.46-8.8h1.24Z"/><path class="cls-2" d="M1406.28,96.32a11.37,11.37,0,0,1,3.51-8.68q3.49-3.31,9.4-3.31c4,0,7.13,1.1,9.45,3.29a11.68,11.68,0,0,1,3.46,8.9v2.87a11.33,11.33,0,0,1-3.46,8.65q-3.48,3.27-9.37,3.27a13.47,13.47,0,0,1-9.42-3.25,11.44,11.44,0,0,1-3.57-8.91Zm8.65,3.06a4.82,4.82,0,0,0,1.15,3.35,4.07,4.07,0,0,0,3.19,1.28c2.79,0,4.19-1.76,4.19-5.3V96.33a5.08,5.08,0,0,0-1.12-3.38,3.89,3.89,0,0,0-3.15-1.33,4,4,0,0,0-3.11,1.29,5.06,5.06,0,0,0-1.15,3.5Zm6.89,39.46-6.25-3.15,28.33-45.34,6.25,3.14Zm12-9.88a11.29,11.29,0,0,1,3.52-8.69,13.26,13.26,0,0,1,9.39-3.27q5.93,0,9.44,3.23t3.51,9V132a11.36,11.36,0,0,1-3.47,8.68q-3.46,3.27-9.4,3.27a13.45,13.45,0,0,1-9.43-3.25,11.41,11.41,0,0,1-3.56-8.9Zm8.6,3.06a4.69,4.69,0,0,0,1.28,3.26,4,4,0,0,0,3.11,1.41c2.57,0,4-1.22,4.18-3.64l0-4.08a4.89,4.89,0,0,0-1.16-3.39,4.51,4.51,0,0,0-6.21-.08,4.87,4.87,0,0,0-1.24,3.27Z"/><path class="cls-2" d="M1366.81,179.41h-17.58V177l9.29-10.32a22.18,22.18,0,0,0,2.85-3.8,6.39,6.39,0,0,0,.78-3,4.82,4.82,0,0,0-1.27-3.45,4.47,4.47,0,0,0-3.39-1.34,5.27,5.27,0,0,0-4,1.44,5.54,5.54,0,0,0-1.41,4h-3.41a7.91,7.91,0,0,1,2.38-6,8.86,8.86,0,0,1,6.39-2.28,8.49,8.49,0,0,1,5.91,2,6.7,6.7,0,0,1,2.18,5.22q0,4-5,9.44l-7.19,7.79h13.47Z"/><path class="cls-2" d="M1387.25,168c0,4-.69,7-2,8.9s-3.49,2.91-6.39,2.91-5-.95-6.36-2.85-2.09-4.73-2.14-8.5v-4.55q0-5.91,2-8.79c1.36-1.92,3.5-2.87,6.41-2.87s5,.92,6.38,2.77,2.06,4.7,2.1,8.56Zm-3.41-4.66q0-4.34-1.22-6.31a4.18,4.18,0,0,0-3.85-2,4.11,4.11,0,0,0-3.81,2,12.2,12.2,0,0,0-1.24,6.06v5.45q0,4.35,1.26,6.43a4.19,4.19,0,0,0,3.83,2.07,4.13,4.13,0,0,0,3.75-1.95q1.21-2,1.28-6.16Z"/><path class="cls-2" d="M1408.44,168c0,4-.69,7-2,8.9s-3.49,2.91-6.39,2.91-5-.95-6.36-2.85-2.09-4.73-2.14-8.5v-4.55q0-5.91,2-8.79c1.36-1.92,3.5-2.87,6.41-2.87s5,.92,6.38,2.77,2.06,4.7,2.1,8.56Zm-3.41-4.66q0-4.34-1.22-6.31a4.18,4.18,0,0,0-3.85-2,4.11,4.11,0,0,0-3.81,2,12.2,12.2,0,0,0-1.24,6.06v5.45q0,4.35,1.26,6.43A4.19,4.19,0,0,0,1400,177a4.13,4.13,0,0,0,3.75-1.95q1.21-2,1.28-6.16Z"/><path class="cls-2" d="M1414.37,166l1.36-13.38h13.75v3.16h-10.85l-.81,7.31a8.66,8.66,0,0,1,4.47-1.16,7.43,7.43,0,0,1,5.83,2.42,9.54,9.54,0,0,1,2.15,6.55,9.2,9.2,0,0,1-2.24,6.54,8.14,8.14,0,0,1-6.25,2.38,8.52,8.52,0,0,1-5.81-2,7.85,7.85,0,0,1-2.56-5.45h3.23a5.4,5.4,0,0,0,1.64,3.47,5.09,5.09,0,0,0,3.5,1.17,4.6,4.6,0,0,0,3.73-1.62,6.81,6.81,0,0,0,1.35-4.48,6.26,6.26,0,0,0-1.46-4.32,5,5,0,0,0-3.9-1.63,5.56,5.56,0,0,0-3.5,1l-.9.73Z"/><path class="cls-2" d="M1817.82,8l-21.68,50.84H1782l21.72-47.65H1776V.84h41.8Z"/><path class="cls-2" d="M1860.21,36.18h5.9V46.54h-5.9V58.85h-13.43V46.54h-22.43l-.8-8.21L1846.78,1V.84h13.43Zm-23.87,0h10.44V18.33l-.83,1.35Z"/><path class="cls-2" d="M1872.05,12a11.4,11.4,0,0,1,3.5-8.68Q1879.06,0,1885,0t9.44,3.29a11.69,11.69,0,0,1,3.47,8.9v2.87a11.34,11.34,0,0,1-3.47,8.65Q1890.94,27,1885,27a13.49,13.49,0,0,1-9.43-3.25,11.47,11.47,0,0,1-3.56-8.91Zm8.65,3.06a4.84,4.84,0,0,0,1.15,3.35,4.05,4.05,0,0,0,3.19,1.28c2.79,0,4.18-1.76,4.18-5.3V12a5.08,5.08,0,0,0-1.11-3.38A3.89,3.89,0,0,0,1885,7.29a4,4,0,0,0-3.11,1.29,5,5,0,0,0-1.15,3.5Zm6.89,39.46-6.26-3.15L1909.66,6l6.26,3.14Zm12-9.88a11.3,11.3,0,0,1,3.53-8.69,13.25,13.25,0,0,1,9.38-3.27q5.94,0,9.45,3.23t3.5,9V47.7a11.35,11.35,0,0,1-3.46,8.68q-3.48,3.27-9.41,3.27a13.44,13.44,0,0,1-9.42-3.25,11.42,11.42,0,0,1-3.57-8.9Zm8.61,3.06A4.68,4.68,0,0,0,1909.5,51a4,4,0,0,0,3.11,1.41c2.58,0,4-1.22,4.19-3.64l0-4.08a4.89,4.89,0,0,0-1.16-3.39,4.52,4.52,0,0,0-6.22-.08,4.82,4.82,0,0,0-1.23,3.27Z"/><path class="cls-2" d="M1831.66,98.21h-17.58V95.76l9.29-10.32a22,22,0,0,0,2.84-3.8,6.29,6.29,0,0,0,.79-3,4.83,4.83,0,0,0-1.28-3.45,4.44,4.44,0,0,0-3.39-1.34,5.28,5.28,0,0,0-3.95,1.44,5.54,5.54,0,0,0-1.41,4h-3.41a7.92,7.92,0,0,1,2.39-6,8.85,8.85,0,0,1,6.38-2.28,8.49,8.49,0,0,1,5.92,2,6.69,6.69,0,0,1,2.17,5.22q0,4-5.05,9.44l-7.18,7.79h13.47Z"/><path class="cls-2" d="M1852.09,86.77q0,6-2,8.9t-6.4,2.91q-4.29,0-6.35-2.85c-1.38-1.89-2.09-4.73-2.14-8.5V82.68q0-5.91,2-8.79c1.37-1.92,3.51-2.87,6.42-2.87s5,.92,6.37,2.77,2.07,4.7,2.1,8.56Zm-3.41-4.66q0-4.33-1.21-6.31a4.19,4.19,0,0,0-3.85-2,4.12,4.12,0,0,0-3.82,2,12.11,12.11,0,0,0-1.23,6.06V87.3q0,4.35,1.26,6.43a4.18,4.18,0,0,0,3.82,2.07,4.11,4.11,0,0,0,3.75-2q1.23-2,1.28-6.16Z"/><path class="cls-2" d="M1873.28,86.77q0,6-2,8.9t-6.4,2.91q-4.29,0-6.35-2.85c-1.38-1.89-2.09-4.73-2.14-8.5V82.68q0-5.91,2-8.79c1.37-1.92,3.51-2.87,6.42-2.87s5,.92,6.37,2.77,2.07,4.7,2.1,8.56Zm-3.41-4.66q0-4.33-1.21-6.31a4.19,4.19,0,0,0-3.85-2,4.12,4.12,0,0,0-3.82,2,12.11,12.11,0,0,0-1.23,6.06V87.3q0,4.35,1.26,6.43a4.18,4.18,0,0,0,3.82,2.07,4.11,4.11,0,0,0,3.75-2q1.23-2,1.28-6.16Z"/><path class="cls-2" d="M1891,71.37v2.89h-.63a9,9,0,0,0-6.34,2.36,9.83,9.83,0,0,0-2.73,6.43,7.3,7.3,0,0,1,5.79-2.43,6.93,6.93,0,0,1,5.59,2.47,9.48,9.48,0,0,1,2.09,6.37,9.5,9.5,0,0,1-2.25,6.63,7.78,7.78,0,0,1-6.06,2.49,7.64,7.64,0,0,1-6.24-3,11.7,11.7,0,0,1-2.4-7.62V86.7q0-7.41,3.16-11.33t9.41-4Zm-4.48,12.08a5.71,5.71,0,0,0-5.27,3.69v1.25a8.88,8.88,0,0,0,1.49,5.35,4.48,4.48,0,0,0,3.72,2,4.31,4.31,0,0,0,3.62-1.69,8.15,8.15,0,0,0,0-8.91A4.29,4.29,0,0,0,1886.55,83.45Z"/></g></g></svg>